<?xml version="1.0" encoding="UTF-8"?>
<!DOCTYPE svg PUBLIC "-//W3C//DTD SVG 1.1//EN"
    "http://www.w3.org/Graphics/SVG/1.1/DTD/svg11.dtd"><svg xmlns="http://www.w3.org/2000/svg" height="300.0000" stroke-opacity="1" viewBox="0 0 220 300" font-size="1" width="219.5531" xmlns:xlink="http://www.w3.org/1999/xlink" stroke="rgb(0,0,0)" version="1.1"><defs></defs><g stroke-linejoin="miter" stroke-opacity="1.0" fill-opacity="1.0" font-size="33.5195530726257px" stroke="rgb(0,0,0)" stroke-width="1.0265742781715075" fill="rgb(211,211,211)" stroke-linecap="butt" stroke-miterlimit="10.0"><text dominant-baseline="middle" transform="matrix(1.0000,0.0000,0.0000,1.0000,33.5196,206.1453)" stroke="none" text-anchor="middle">b</text></g><g stroke-linejoin="miter" stroke-opacity="1.0" fill-opacity="1.0" font-size="33.5195530726257px" stroke="rgb(0,0,0)" stroke-width="1.0265742781715075" fill="rgb(211,211,211)" stroke-linecap="butt" stroke-miterlimit="10.0"><text dominant-baseline="middle" transform="matrix(1.0000,0.0000,0.0000,1.0000,33.5196,113.9665)" stroke="none" text-anchor="middle">a</text></g><g stroke-linejoin="miter" stroke-opacity="1.0" fill-opacity="1.0" font-size="16.75977653631285px" stroke="rgb(0,0,0)" stroke-width="1.0265742781715075" fill="rgb(0,0,0)" stroke-linecap="butt" stroke-miterlimit="10.0"><text dominant-baseline="middle" transform="matrix(1.0000,0.0000,0.0000,1.0000,159.2179,232.9609)" stroke="none" text-anchor="middle">c</text></g><g stroke-linejoin="miter" stroke-opacity="1.0" fill-opacity="1.0" font-size="16.75977653631285px" stroke="rgb(0,0,0)" stroke-width="1.0265742781715075" fill="rgb(0,0,0)" stroke-linecap="butt" stroke-miterlimit="10.0"><text dominant-baseline="middle" transform="matrix(1.0000,0.0000,0.0000,1.0000,115.6425,232.9609)" stroke="none" text-anchor="middle">b</text></g><g stroke-linejoin="miter" stroke-opacity="1.0" fill-opacity="1.0" font-size="16.75977653631285px" stroke="rgb(0,0,0)" stroke-width="1.0265742781715075" fill="rgb(0,0,0)" stroke-linecap="butt" stroke-miterlimit="10.0"><text dominant-baseline="middle" transform="matrix(1.0000,0.0000,0.0000,1.0000,72.0670,232.9609)" stroke="none" text-anchor="middle">a</text></g><g stroke-linejoin="miter" stroke-opacity="1.0" fill-opacity="0.0" stroke="rgb(0,0,0)" stroke-width="1.675977653631285" fill="rgb(0,0,0)" stroke-linecap="butt" stroke-miterlimit="10.0"><path d="M 186.0335,249.7207 c 0.0000,-2.7769 -2.2511,-5.0279 -5.0279 -5.0279c -2.7769,-0.0000 -5.0279,2.2511 -5.0279 5.0279c -0.0000,2.7769 2.2511,5.0279 5.0279 5.0279c 2.7769,0.0000 5.0279,-2.2511 5.0279 -5.0279Z"/></g><g stroke-linejoin="miter" stroke-opacity="1.0" fill-opacity="0.0" stroke="rgb(0,0,0)" stroke-width="1.675977653631285" fill="rgb(0,0,0)" stroke-linecap="butt" stroke-miterlimit="10.0"><path d="M 142.4581,249.7207 c 0.0000,-2.7769 -2.2511,-5.0279 -5.0279 -5.0279c -2.7769,-0.0000 -5.0279,2.2511 -5.0279 5.0279c -0.0000,2.7769 2.2511,5.0279 5.0279 5.0279c 2.7769,0.0000 5.0279,-2.2511 5.0279 -5.0279Z"/></g><g stroke-linejoin="miter" stroke-opacity="1.0" fill-opacity="0.0" stroke="rgb(0,0,0)" stroke-width="1.675977653631285" fill="rgb(0,0,0)" stroke-linecap="butt" stroke-miterlimit="10.0"><path d="M 98.8827,249.7207 c 0.0000,-2.7769 -2.2511,-5.0279 -5.0279 -5.0279c -2.7769,-0.0000 -5.0279,2.2511 -5.0279 5.0279c -0.0000,2.7769 2.2511,5.0279 5.0279 5.0279c 2.7769,0.0000 5.0279,-2.2511 5.0279 -5.0279Z"/></g><g stroke-linejoin="miter" stroke-opacity="1.0" fill-opacity="0.0" stroke="rgb(0,0,0)" stroke-width="1.675977653631285" fill="rgb(0,0,0)" stroke-linecap="butt" stroke-miterlimit="10.0"><path d="M 55.3073,249.7207 c 0.0000,-2.7769 -2.2511,-5.0279 -5.0279 -5.0279c -2.7769,-0.0000 -5.0279,2.2511 -5.0279 5.0279c -0.0000,2.7769 2.2511,5.0279 5.0279 5.0279c 2.7769,0.0000 5.0279,-2.2511 5.0279 -5.0279Z"/></g><g stroke-linejoin="miter" stroke-opacity="1.0" fill-opacity="0.0" stroke="rgb(0,0,0)" stroke-width="1.0" fill="rgb(0,0,0)" stroke-linecap="butt" stroke-miterlimit="10.0"><path d="M 142.4581,249.7207 h 25.1397 "/></g><g stroke-linejoin="miter" stroke-opacity="1.0" fill-opacity="1.0" stroke="rgb(0,0,0)" stroke-width="0.0" fill="rgb(0,0,0)" stroke-linecap="butt" stroke-miterlimit="10.0"></g><g stroke-linejoin="miter" stroke-opacity="1.0" fill-opacity="1.0" stroke="rgb(0,0,0)" stroke-width="0.0" fill="rgb(0,0,0)" stroke-linecap="butt" stroke-miterlimit="10.0"></g><g stroke-linejoin="miter" stroke-opacity="1.0" fill-opacity="1.0" stroke="rgb(0,0,0)" stroke-width="0.0" fill="rgb(0,0,0)" stroke-linecap="butt" stroke-miterlimit="10.0"><path d="M 175.9777,249.7207 l -9.7892,-3.1807 l 1.6722,3.1807 l -1.6722,3.1807 Z"/></g><g stroke-linejoin="miter" stroke-opacity="1.0" fill-opacity="1.0" stroke="rgb(0,0,0)" stroke-width="0.0" fill="rgb(0,0,0)" stroke-linecap="butt" stroke-miterlimit="10.0"><path d="M 167.8606,249.7207 h -0.2629 v -0.5000 l 0.2629,0.5000 h -0.2629 v 0.5000 Z"/></g><g stroke-linejoin="miter" stroke-opacity="1.0" fill-opacity="0.0" stroke="rgb(0,0,0)" stroke-width="1.0" fill="rgb(0,0,0)" stroke-linecap="butt" stroke-miterlimit="10.0"><path d="M 98.8827,249.7207 h 25.1397 "/></g><g stroke-linejoin="miter" stroke-opacity="1.0" fill-opacity="1.0" stroke="rgb(0,0,0)" stroke-width="0.0" fill="rgb(0,0,0)" stroke-linecap="butt" stroke-miterlimit="10.0"></g><g stroke-linejoin="miter" stroke-opacity="1.0" fill-opacity="1.0" stroke="rgb(0,0,0)" stroke-width="0.0" fill="rgb(0,0,0)" stroke-linecap="butt" stroke-miterlimit="10.0"></g><g stroke-linejoin="miter" stroke-opacity="1.0" fill-opacity="1.0" stroke="rgb(0,0,0)" stroke-width="0.0" fill="rgb(0,0,0)" stroke-linecap="butt" stroke-miterlimit="10.0"><path d="M 132.4022,249.7207 l -9.7892,-3.1807 l 1.6722,3.1807 l -1.6722,3.1807 Z"/></g><g stroke-linejoin="miter" stroke-opacity="1.0" fill-opacity="1.0" stroke="rgb(0,0,0)" stroke-width="0.0" fill="rgb(0,0,0)" stroke-linecap="butt" stroke-miterlimit="10.0"><path d="M 124.2852,249.7207 h -0.2629 v -0.5000 l 0.2629,0.5000 h -0.2629 v 0.5000 Z"/></g><g stroke-linejoin="miter" stroke-opacity="1.0" fill-opacity="0.0" stroke="rgb(0,0,0)" stroke-width="1.0" fill="rgb(0,0,0)" stroke-linecap="butt" stroke-miterlimit="10.0"><path d="M 55.3073,249.7207 h 25.1397 "/></g><g stroke-linejoin="miter" stroke-opacity="1.0" fill-opacity="1.0" stroke="rgb(0,0,0)" stroke-width="0.0" fill="rgb(0,0,0)" stroke-linecap="butt" stroke-miterlimit="10.0"></g><g stroke-linejoin="miter" stroke-opacity="1.0" fill-opacity="1.0" stroke="rgb(0,0,0)" stroke-width="0.0" fill="rgb(0,0,0)" stroke-linecap="butt" stroke-miterlimit="10.0"></g><g stroke-linejoin="miter" stroke-opacity="1.0" fill-opacity="1.0" stroke="rgb(0,0,0)" stroke-width="0.0" fill="rgb(0,0,0)" stroke-linecap="butt" stroke-miterlimit="10.0"><path d="M 88.8268,249.7207 l -9.7892,-3.1807 l 1.6722,3.1807 l -1.6722,3.1807 Z"/></g><g stroke-linejoin="miter" stroke-opacity="1.0" fill-opacity="1.0" stroke="rgb(0,0,0)" stroke-width="0.0" fill="rgb(0,0,0)" stroke-linecap="butt" stroke-miterlimit="10.0"><path d="M 80.7098,249.7207 h -0.2629 v -0.5000 l 0.2629,0.5000 h -0.2629 v 0.5000 Z"/></g><g stroke-linejoin="miter" stroke-opacity="1.0" fill-opacity="1.0" font-size="16.75977653631285px" stroke="rgb(0,0,0)" stroke-width="1.0265742781715075" fill="rgb(0,0,0)" stroke-linecap="butt" stroke-miterlimit="10.0"><text dominant-baseline="middle" transform="matrix(1.0000,0.0000,0.0000,1.0000,159.2179,144.1341)" stroke="none" text-anchor="middle">c</text></g><g stroke-linejoin="miter" stroke-opacity="1.0" fill-opacity="1.0" font-size="16.75977653631285px" stroke="rgb(0,0,0)" stroke-width="1.0265742781715075" fill="rgb(0,0,0)" stroke-linecap="butt" stroke-miterlimit="10.0"><text dominant-baseline="middle" transform="matrix(1.0000,0.0000,0.0000,1.0000,115.6425,144.1341)" stroke="none" text-anchor="middle">b</text></g><g stroke-linejoin="miter" stroke-opacity="1.0" fill-opacity="1.0" font-size="16.75977653631285px" stroke="rgb(0,0,0)" stroke-width="1.0265742781715075" fill="rgb(0,0,0)" stroke-linecap="butt" stroke-miterlimit="10.0"><text dominant-baseline="middle" transform="matrix(1.0000,0.0000,0.0000,1.0000,72.0670,144.1341)" stroke="none" text-anchor="middle">a</text></g><g stroke-linejoin="miter" stroke-opacity="1.0" fill-opacity="0.0" stroke="rgb(0,0,0)" stroke-width="1.675977653631285" fill="rgb(0,0,0)" stroke-linecap="butt" stroke-miterlimit="10.0"><path d="M 186.0335,160.8939 c 0.0000,-2.7769 -2.2511,-5.0279 -5.0279 -5.0279c -2.7769,-0.0000 -5.0279,2.2511 -5.0279 5.0279c -0.0000,2.7769 2.2511,5.0279 5.0279 5.0279c 2.7769,0.0000 5.0279,-2.2511 5.0279 -5.0279Z"/></g><g stroke-linejoin="miter" stroke-opacity="1.0" fill-opacity="0.0" stroke="rgb(0,0,0)" stroke-width="1.675977653631285" fill="rgb(0,0,0)" stroke-linecap="butt" stroke-miterlimit="10.0"><path d="M 142.4581,160.8939 c 0.0000,-2.7769 -2.2511,-5.0279 -5.0279 -5.0279c -2.7769,-0.0000 -5.0279,2.2511 -5.0279 5.0279c -0.0000,2.7769 2.2511,5.0279 5.0279 5.0279c 2.7769,0.0000 5.0279,-2.2511 5.0279 -5.0279Z"/></g><g stroke-linejoin="miter" stroke-opacity="1.0" fill-opacity="0.0" stroke="rgb(0,0,0)" stroke-width="1.675977653631285" fill="rgb(0,0,0)" stroke-linecap="butt" stroke-miterlimit="10.0"><path d="M 98.8827,160.8939 c 0.0000,-2.7769 -2.2511,-5.0279 -5.0279 -5.0279c -2.7769,-0.0000 -5.0279,2.2511 -5.0279 5.0279c -0.0000,2.7769 2.2511,5.0279 5.0279 5.0279c 2.7769,0.0000 5.0279,-2.2511 5.0279 -5.0279Z"/></g><g stroke-linejoin="miter" stroke-opacity="1.0" fill-opacity="0.0" stroke="rgb(0,0,0)" stroke-width="1.675977653631285" fill="rgb(0,0,0)" stroke-linecap="butt" stroke-miterlimit="10.0"><path d="M 55.3073,160.8939 c 0.0000,-2.7769 -2.2511,-5.0279 -5.0279 -5.0279c -2.7769,-0.0000 -5.0279,2.2511 -5.0279 5.0279c -0.0000,2.7769 2.2511,5.0279 5.0279 5.0279c 2.7769,0.0000 5.0279,-2.2511 5.0279 -5.0279Z"/></g><g stroke-linejoin="miter" stroke-opacity="1.0" fill-opacity="0.0" stroke="rgb(0,0,0)" stroke-width="1.0" fill="rgb(0,0,0)" stroke-linecap="butt" stroke-miterlimit="10.0"><path d="M 142.4581,160.8939 h 25.1397 "/></g><g stroke-linejoin="miter" stroke-opacity="1.0" fill-opacity="1.0" stroke="rgb(0,0,0)" stroke-width="0.0" fill="rgb(0,0,0)" stroke-linecap="butt" stroke-miterlimit="10.0"></g><g stroke-linejoin="miter" stroke-opacity="1.0" fill-opacity="1.0" stroke="rgb(0,0,0)" stroke-width="0.0" fill="rgb(0,0,0)" stroke-linecap="butt" stroke-miterlimit="10.0"></g><g stroke-linejoin="miter" stroke-opacity="1.0" fill-opacity="1.0" stroke="rgb(0,0,0)" stroke-width="0.0" fill="rgb(0,0,0)" stroke-linecap="butt" stroke-miterlimit="10.0"><path d="M 175.9777,160.8939 l -9.7892,-3.1807 l 1.6722,3.1807 l -1.6722,3.1807 Z"/></g><g stroke-linejoin="miter" stroke-opacity="1.0" fill-opacity="1.0" stroke="rgb(0,0,0)" stroke-width="0.0" fill="rgb(0,0,0)" stroke-linecap="butt" stroke-miterlimit="10.0"><path d="M 167.8606,160.8939 h -0.2629 v -0.5000 l 0.2629,0.5000 h -0.2629 v 0.5000 Z"/></g><g stroke-linejoin="miter" stroke-opacity="1.0" fill-opacity="0.0" stroke="rgb(0,0,0)" stroke-width="1.0" fill="rgb(0,0,0)" stroke-linecap="butt" stroke-miterlimit="10.0"><path d="M 98.8827,160.8939 h 25.1397 "/></g><g stroke-linejoin="miter" stroke-opacity="1.0" fill-opacity="1.0" stroke="rgb(0,0,0)" stroke-width="0.0" fill="rgb(0,0,0)" stroke-linecap="butt" stroke-miterlimit="10.0"></g><g stroke-linejoin="miter" stroke-opacity="1.0" fill-opacity="1.0" stroke="rgb(0,0,0)" stroke-width="0.0" fill="rgb(0,0,0)" stroke-linecap="butt" stroke-miterlimit="10.0"></g><g stroke-linejoin="miter" stroke-opacity="1.0" fill-opacity="1.0" stroke="rgb(0,0,0)" stroke-width="0.0" fill="rgb(0,0,0)" stroke-linecap="butt" stroke-miterlimit="10.0"><path d="M 132.4022,160.8939 l -9.7892,-3.1807 l 1.6722,3.1807 l -1.6722,3.1807 Z"/></g><g stroke-linejoin="miter" stroke-opacity="1.0" fill-opacity="1.0" stroke="rgb(0,0,0)" stroke-width="0.0" fill="rgb(0,0,0)" stroke-linecap="butt" stroke-miterlimit="10.0"><path d="M 124.2852,160.8939 h -0.2629 v -0.5000 l 0.2629,0.5000 h -0.2629 v 0.5000 Z"/></g><g stroke-linejoin="miter" stroke-opacity="1.0" fill-opacity="0.0" stroke="rgb(0,0,0)" stroke-width="1.0" fill="rgb(0,0,0)" stroke-linecap="butt" stroke-miterlimit="10.0"><path d="M 55.3073,160.8939 h 25.1397 "/></g><g stroke-linejoin="miter" stroke-opacity="1.0" fill-opacity="1.0" stroke="rgb(0,0,0)" stroke-width="0.0" fill="rgb(0,0,0)" stroke-linecap="butt" stroke-miterlimit="10.0"></g><g stroke-linejoin="miter" stroke-opacity="1.0" fill-opacity="1.0" stroke="rgb(0,0,0)" stroke-width="0.0" fill="rgb(0,0,0)" stroke-linecap="butt" stroke-miterlimit="10.0"></g><g stroke-linejoin="miter" stroke-opacity="1.0" fill-opacity="1.0" stroke="rgb(0,0,0)" stroke-width="0.0" fill="rgb(0,0,0)" stroke-linecap="butt" stroke-miterlimit="10.0"><path d="M 88.8268,160.8939 l -9.7892,-3.1807 l 1.6722,3.1807 l -1.6722,3.1807 Z"/></g><g stroke-linejoin="miter" stroke-opacity="1.0" fill-opacity="1.0" stroke="rgb(0,0,0)" stroke-width="0.0" fill="rgb(0,0,0)" stroke-linecap="butt" stroke-miterlimit="10.0"><path d="M 80.7098,160.8939 h -0.2629 v -0.5000 l 0.2629,0.5000 h -0.2629 v 0.5000 Z"/></g><g stroke-linejoin="miter" stroke-opacity="1.0" fill-opacity="1.0" font-size="16.75977653631285px" stroke="rgb(0,0,0)" stroke-width="1.0265742781715075" fill="rgb(0,0,0)" stroke-linecap="butt" stroke-miterlimit="10.0"><text dominant-baseline="middle" transform="matrix(1.0000,0.0000,0.0000,1.0000,159.2179,55.3073)" stroke="none" text-anchor="middle">c</text></g><g stroke-linejoin="miter" stroke-opacity="1.0" fill-opacity="1.0" font-size="16.75977653631285px" stroke="rgb(0,0,0)" stroke-width="1.0265742781715075" fill="rgb(0,0,0)" stroke-linecap="butt" stroke-miterlimit="10.0"><text dominant-baseline="middle" transform="matrix(1.0000,0.0000,0.0000,1.0000,115.6425,55.3073)" stroke="none" text-anchor="middle">b</text></g><g stroke-linejoin="miter" stroke-opacity="1.0" fill-opacity="1.0" font-size="16.75977653631285px" stroke="rgb(0,0,0)" stroke-width="1.0265742781715075" fill="rgb(0,0,0)" stroke-linecap="butt" stroke-miterlimit="10.0"><text dominant-baseline="middle" transform="matrix(1.0000,0.0000,0.0000,1.0000,72.0670,55.3073)" stroke="none" text-anchor="middle">a</text></g><g stroke-linejoin="miter" stroke-opacity="1.0" fill-opacity="0.0" stroke="rgb(0,0,0)" stroke-width="1.675977653631285" fill="rgb(0,0,0)" stroke-linecap="butt" stroke-miterlimit="10.0"><path d="M 186.0335,72.0670 c 0.0000,-2.7769 -2.2511,-5.0279 -5.0279 -5.0279c -2.7769,-0.0000 -5.0279,2.2511 -5.0279 5.0279c -0.0000,2.7769 2.2511,5.0279 5.0279 5.0279c 2.7769,0.0000 5.0279,-2.2511 5.0279 -5.0279Z"/></g><g stroke-linejoin="miter" stroke-opacity="1.0" fill-opacity="0.0" stroke="rgb(0,0,0)" stroke-width="1.675977653631285" fill="rgb(0,0,0)" stroke-linecap="butt" stroke-miterlimit="10.0"><path d="M 142.4581,72.0670 c 0.0000,-2.7769 -2.2511,-5.0279 -5.0279 -5.0279c -2.7769,-0.0000 -5.0279,2.2511 -5.0279 5.0279c -0.0000,2.7769 2.2511,5.0279 5.0279 5.0279c 2.7769,0.0000 5.0279,-2.2511 5.0279 -5.0279Z"/></g><g stroke-linejoin="miter" stroke-opacity="1.0" fill-opacity="0.0" stroke="rgb(0,0,0)" stroke-width="1.675977653631285" fill="rgb(0,0,0)" stroke-linecap="butt" stroke-miterlimit="10.0"><path d="M 98.8827,72.0670 c 0.0000,-2.7769 -2.2511,-5.0279 -5.0279 -5.0279c -2.7769,-0.0000 -5.0279,2.2511 -5.0279 5.0279c -0.0000,2.7769 2.2511,5.0279 5.0279 5.0279c 2.7769,0.0000 5.0279,-2.2511 5.0279 -5.0279Z"/></g><g stroke-linejoin="miter" stroke-opacity="1.0" fill-opacity="0.0" stroke="rgb(0,0,0)" stroke-width="1.675977653631285" fill="rgb(0,0,0)" stroke-linecap="butt" stroke-miterlimit="10.0"><path d="M 55.3073,72.0670 c 0.0000,-2.7769 -2.2511,-5.0279 -5.0279 -5.0279c -2.7769,-0.0000 -5.0279,2.2511 -5.0279 5.0279c -0.0000,2.7769 2.2511,5.0279 5.0279 5.0279c 2.7769,0.0000 5.0279,-2.2511 5.0279 -5.0279Z"/></g><g stroke-linejoin="miter" stroke-opacity="1.0" fill-opacity="0.0" stroke="rgb(0,0,0)" stroke-width="1.0" fill="rgb(0,0,0)" stroke-linecap="butt" stroke-miterlimit="10.0"><path d="M 142.4581,72.0670 h 25.1397 "/></g><g stroke-linejoin="miter" stroke-opacity="1.0" fill-opacity="1.0" stroke="rgb(0,0,0)" stroke-width="0.0" fill="rgb(0,0,0)" stroke-linecap="butt" stroke-miterlimit="10.0"></g><g stroke-linejoin="miter" stroke-opacity="1.0" fill-opacity="1.0" stroke="rgb(0,0,0)" stroke-width="0.0" fill="rgb(0,0,0)" stroke-linecap="butt" stroke-miterlimit="10.0"></g><g stroke-linejoin="miter" stroke-opacity="1.0" fill-opacity="1.0" stroke="rgb(0,0,0)" stroke-width="0.0" fill="rgb(0,0,0)" stroke-linecap="butt" stroke-miterlimit="10.0"><path d="M 175.9777,72.0670 l -9.7892,-3.1807 l 1.6722,3.1807 l -1.6722,3.1807 Z"/></g><g stroke-linejoin="miter" stroke-opacity="1.0" fill-opacity="1.0" stroke="rgb(0,0,0)" stroke-width="0.0" fill="rgb(0,0,0)" stroke-linecap="butt" stroke-miterlimit="10.0"><path d="M 167.8606,72.0670 h -0.2629 v -0.5000 l 0.2629,0.5000 h -0.2629 v 0.5000 Z"/></g><g stroke-linejoin="miter" stroke-opacity="1.0" fill-opacity="0.0" stroke="rgb(0,0,0)" stroke-width="1.0" fill="rgb(0,0,0)" stroke-linecap="butt" stroke-miterlimit="10.0"><path d="M 98.8827,72.0670 h 25.1397 "/></g><g stroke-linejoin="miter" stroke-opacity="1.0" fill-opacity="1.0" stroke="rgb(0,0,0)" stroke-width="0.0" fill="rgb(0,0,0)" stroke-linecap="butt" stroke-miterlimit="10.0"></g><g stroke-linejoin="miter" stroke-opacity="1.0" fill-opacity="1.0" stroke="rgb(0,0,0)" stroke-width="0.0" fill="rgb(0,0,0)" stroke-linecap="butt" stroke-miterlimit="10.0"></g><g stroke-linejoin="miter" stroke-opacity="1.0" fill-opacity="1.0" stroke="rgb(0,0,0)" stroke-width="0.0" fill="rgb(0,0,0)" stroke-linecap="butt" stroke-miterlimit="10.0"><path d="M 132.4022,72.0670 l -9.7892,-3.1807 l 1.6722,3.1807 l -1.6722,3.1807 Z"/></g><g stroke-linejoin="miter" stroke-opacity="1.0" fill-opacity="1.0" stroke="rgb(0,0,0)" stroke-width="0.0" fill="rgb(0,0,0)" stroke-linecap="butt" stroke-miterlimit="10.0"><path d="M 124.2852,72.0670 h -0.2629 v -0.5000 l 0.2629,0.5000 h -0.2629 v 0.5000 Z"/></g><g stroke-linejoin="miter" stroke-opacity="1.0" fill-opacity="0.0" stroke="rgb(0,0,0)" stroke-width="1.0" fill="rgb(0,0,0)" stroke-linecap="butt" stroke-miterlimit="10.0"><path d="M 55.3073,72.0670 h 25.1397 "/></g><g stroke-linejoin="miter" stroke-opacity="1.0" fill-opacity="1.0" stroke="rgb(0,0,0)" stroke-width="0.0" fill="rgb(0,0,0)" stroke-linecap="butt" stroke-miterlimit="10.0"></g><g stroke-linejoin="miter" stroke-opacity="1.0" fill-opacity="1.0" stroke="rgb(0,0,0)" stroke-width="0.0" fill="rgb(0,0,0)" stroke-linecap="butt" stroke-miterlimit="10.0"></g><g stroke-linejoin="miter" stroke-opacity="1.0" fill-opacity="1.0" stroke="rgb(0,0,0)" stroke-width="0.0" fill="rgb(0,0,0)" stroke-linecap="butt" stroke-miterlimit="10.0"><path d="M 88.8268,72.0670 l -9.7892,-3.1807 l 1.6722,3.1807 l -1.6722,3.1807 Z"/></g><g stroke-linejoin="miter" stroke-opacity="1.0" fill-opacity="1.0" stroke="rgb(0,0,0)" stroke-width="0.0" fill="rgb(0,0,0)" stroke-linecap="butt" stroke-miterlimit="10.0"><path d="M 80.7098,72.0670 h -0.2629 v -0.5000 l 0.2629,0.5000 h -0.2629 v 0.5000 Z"/></g><g stroke-linejoin="miter" stroke-opacity="1.0" fill-opacity="0.0" stroke="rgb(211,211,211)" stroke-width="1.0" fill="rgb(0,0,0)" stroke-linecap="butt" stroke-miterlimit="10.0"><path d="M 50.2793,165.9218 l 0.0000,70.3911 "/></g><g stroke-linejoin="miter" stroke-opacity="1.0" fill-opacity="1.0" stroke="rgb(0,0,0)" stroke-width="0.0" fill="rgb(0,0,0)" stroke-linecap="butt" stroke-miterlimit="10.0"></g><g stroke-linejoin="miter" stroke-opacity="1.0" fill-opacity="1.0" stroke="rgb(0,0,0)" stroke-width="0.0" fill="rgb(211,211,211)" stroke-linecap="butt" stroke-miterlimit="10.0"></g><g stroke-linejoin="miter" stroke-opacity="1.0" fill-opacity="1.0" stroke="rgb(0,0,0)" stroke-width="0.0" fill="rgb(211,211,211)" stroke-linecap="butt" stroke-miterlimit="10.0"><path d="M 50.2793,244.6927 l 3.1807,-9.7892 l -3.1807,1.6722 l -3.1807,-1.6722 Z"/></g><g stroke-linejoin="miter" stroke-opacity="1.0" fill-opacity="1.0" stroke="rgb(0,0,0)" stroke-width="0.0" fill="rgb(211,211,211)" stroke-linecap="butt" stroke-miterlimit="10.0"><path d="M 50.2793,236.5757 l -0.0000,-0.2629 l 0.5000,-0.0000 l -0.5000,0.2629 l -0.0000,-0.2629 l -0.5000,0.0000 Z"/></g><g stroke-linejoin="miter" stroke-opacity="1.0" fill-opacity="0.0" stroke="rgb(211,211,211)" stroke-width="1.0" fill="rgb(0,0,0)" stroke-linecap="butt" stroke-miterlimit="10.0"><path d="M 50.2793,77.0950 l 0.0000,70.3911 "/></g><g stroke-linejoin="miter" stroke-opacity="1.0" fill-opacity="1.0" stroke="rgb(0,0,0)" stroke-width="0.0" fill="rgb(0,0,0)" stroke-linecap="butt" stroke-miterlimit="10.0"></g><g stroke-linejoin="miter" stroke-opacity="1.0" fill-opacity="1.0" stroke="rgb(0,0,0)" stroke-width="0.0" fill="rgb(211,211,211)" stroke-linecap="butt" stroke-miterlimit="10.0"></g><g stroke-linejoin="miter" stroke-opacity="1.0" fill-opacity="1.0" stroke="rgb(0,0,0)" stroke-width="0.0" fill="rgb(211,211,211)" stroke-linecap="butt" stroke-miterlimit="10.0"><path d="M 50.2793,155.8659 l 3.1807,-9.7892 l -3.1807,1.6722 l -3.1807,-1.6722 Z"/></g><g stroke-linejoin="miter" stroke-opacity="1.0" fill-opacity="1.0" stroke="rgb(0,0,0)" stroke-width="0.0" fill="rgb(211,211,211)" stroke-linecap="butt" stroke-miterlimit="10.0"><path d="M 50.2793,147.7489 l -0.0000,-0.2629 l 0.5000,-0.0000 l -0.5000,0.2629 l -0.0000,-0.2629 l -0.5000,0.0000 Z"/></g><g stroke-linejoin="miter" stroke-opacity="1.0" fill-opacity="0.0" stroke="rgb(211,211,211)" stroke-width="1.0" fill="rgb(0,0,0)" stroke-linecap="butt" stroke-miterlimit="10.0"><path d="M 93.8547,165.9218 l 0.0000,70.3911 "/></g><g stroke-linejoin="miter" stroke-opacity="1.0" fill-opacity="1.0" stroke="rgb(0,0,0)" stroke-width="0.0" fill="rgb(0,0,0)" stroke-linecap="butt" stroke-miterlimit="10.0"></g><g stroke-linejoin="miter" stroke-opacity="1.0" fill-opacity="1.0" stroke="rgb(0,0,0)" stroke-width="0.0" fill="rgb(211,211,211)" stroke-linecap="butt" stroke-miterlimit="10.0"></g><g stroke-linejoin="miter" stroke-opacity="1.0" fill-opacity="1.0" stroke="rgb(0,0,0)" stroke-width="0.0" fill="rgb(211,211,211)" stroke-linecap="butt" stroke-miterlimit="10.0"><path d="M 93.8547,244.6927 l 3.1807,-9.7892 l -3.1807,1.6722 l -3.1807,-1.6722 Z"/></g><g stroke-linejoin="miter" stroke-opacity="1.0" fill-opacity="1.0" stroke="rgb(0,0,0)" stroke-width="0.0" fill="rgb(211,211,211)" stroke-linecap="butt" stroke-miterlimit="10.0"><path d="M 93.8547,236.5757 l -0.0000,-0.2629 l 0.5000,-0.0000 l -0.5000,0.2629 l -0.0000,-0.2629 l -0.5000,0.0000 Z"/></g><g stroke-linejoin="miter" stroke-opacity="1.0" fill-opacity="0.0" stroke="rgb(211,211,211)" stroke-width="1.0" fill="rgb(0,0,0)" stroke-linecap="butt" stroke-miterlimit="10.0"><path d="M 93.8547,77.0950 l 0.0000,70.3911 "/></g><g stroke-linejoin="miter" stroke-opacity="1.0" fill-opacity="1.0" stroke="rgb(0,0,0)" stroke-width="0.0" fill="rgb(0,0,0)" stroke-linecap="butt" stroke-miterlimit="10.0"></g><g stroke-linejoin="miter" stroke-opacity="1.0" fill-opacity="1.0" stroke="rgb(0,0,0)" stroke-width="0.0" fill="rgb(211,211,211)" stroke-linecap="butt" stroke-miterlimit="10.0"></g><g stroke-linejoin="miter" stroke-opacity="1.0" fill-opacity="1.0" stroke="rgb(0,0,0)" stroke-width="0.0" fill="rgb(211,211,211)" stroke-linecap="butt" stroke-miterlimit="10.0"><path d="M 93.8547,155.8659 l 3.1807,-9.7892 l -3.1807,1.6722 l -3.1807,-1.6722 Z"/></g><g stroke-linejoin="miter" stroke-opacity="1.0" fill-opacity="1.0" stroke="rgb(0,0,0)" stroke-width="0.0" fill="rgb(211,211,211)" stroke-linecap="butt" stroke-miterlimit="10.0"><path d="M 93.8547,147.7489 l -0.0000,-0.2629 l 0.5000,-0.0000 l -0.5000,0.2629 l -0.0000,-0.2629 l -0.5000,0.0000 Z"/></g><g stroke-linejoin="miter" stroke-opacity="1.0" fill-opacity="0.0" stroke="rgb(211,211,211)" stroke-width="1.0" fill="rgb(0,0,0)" stroke-linecap="butt" stroke-miterlimit="10.0"><path d="M 137.4302,165.9218 l 0.0000,70.3911 "/></g><g stroke-linejoin="miter" stroke-opacity="1.0" fill-opacity="1.0" stroke="rgb(0,0,0)" stroke-width="0.0" fill="rgb(0,0,0)" stroke-linecap="butt" stroke-miterlimit="10.0"></g><g stroke-linejoin="miter" stroke-opacity="1.0" fill-opacity="1.0" stroke="rgb(0,0,0)" stroke-width="0.0" fill="rgb(211,211,211)" stroke-linecap="butt" stroke-miterlimit="10.0"></g><g stroke-linejoin="miter" stroke-opacity="1.0" fill-opacity="1.0" stroke="rgb(0,0,0)" stroke-width="0.0" fill="rgb(211,211,211)" stroke-linecap="butt" stroke-miterlimit="10.0"><path d="M 137.4302,244.6927 l 3.1807,-9.7892 l -3.1807,1.6722 l -3.1807,-1.6722 Z"/></g><g stroke-linejoin="miter" stroke-opacity="1.0" fill-opacity="1.0" stroke="rgb(0,0,0)" stroke-width="0.0" fill="rgb(211,211,211)" stroke-linecap="butt" stroke-miterlimit="10.0"><path d="M 137.4302,236.5757 l -0.0000,-0.2629 l 0.5000,-0.0000 l -0.5000,0.2629 l -0.0000,-0.2629 l -0.5000,0.0000 Z"/></g><g stroke-linejoin="miter" stroke-opacity="1.0" fill-opacity="0.0" stroke="rgb(211,211,211)" stroke-width="1.0" fill="rgb(0,0,0)" stroke-linecap="butt" stroke-miterlimit="10.0"><path d="M 137.4302,77.0950 l 0.0000,70.3911 "/></g><g stroke-linejoin="miter" stroke-opacity="1.0" fill-opacity="1.0" stroke="rgb(0,0,0)" stroke-width="0.0" fill="rgb(0,0,0)" stroke-linecap="butt" stroke-miterlimit="10.0"></g><g stroke-linejoin="miter" stroke-opacity="1.0" fill-opacity="1.0" stroke="rgb(0,0,0)" stroke-width="0.0" fill="rgb(211,211,211)" stroke-linecap="butt" stroke-miterlimit="10.0"></g><g stroke-linejoin="miter" stroke-opacity="1.0" fill-opacity="1.0" stroke="rgb(0,0,0)" stroke-width="0.0" fill="rgb(211,211,211)" stroke-linecap="butt" stroke-miterlimit="10.0"><path d="M 137.4302,155.8659 l 3.1807,-9.7892 l -3.1807,1.6722 l -3.1807,-1.6722 Z"/></g><g stroke-linejoin="miter" stroke-opacity="1.0" fill-opacity="1.0" stroke="rgb(0,0,0)" stroke-width="0.0" fill="rgb(211,211,211)" stroke-linecap="butt" stroke-miterlimit="10.0"><path d="M 137.4302,147.7489 l -0.0000,-0.2629 l 0.5000,-0.0000 l -0.5000,0.2629 l -0.0000,-0.2629 l -0.5000,0.0000 Z"/></g><g stroke-linejoin="miter" stroke-opacity="1.0" fill-opacity="0.0" stroke="rgb(211,211,211)" stroke-width="1.0" fill="rgb(0,0,0)" stroke-linecap="butt" stroke-miterlimit="10.0"><path d="M 181.0056,165.9218 l 0.0000,70.3911 "/></g><g stroke-linejoin="miter" stroke-opacity="1.0" fill-opacity="1.0" stroke="rgb(0,0,0)" stroke-width="0.0" fill="rgb(0,0,0)" stroke-linecap="butt" stroke-miterlimit="10.0"></g><g stroke-linejoin="miter" stroke-opacity="1.0" fill-opacity="1.0" stroke="rgb(0,0,0)" stroke-width="0.0" fill="rgb(211,211,211)" stroke-linecap="butt" stroke-miterlimit="10.0"></g><g stroke-linejoin="miter" stroke-opacity="1.0" fill-opacity="1.0" stroke="rgb(0,0,0)" stroke-width="0.0" fill="rgb(211,211,211)" stroke-linecap="butt" stroke-miterlimit="10.0"><path d="M 181.0056,244.6927 l 3.1807,-9.7892 l -3.1807,1.6722 l -3.1807,-1.6722 Z"/></g><g stroke-linejoin="miter" stroke-opacity="1.0" fill-opacity="1.0" stroke="rgb(0,0,0)" stroke-width="0.0" fill="rgb(211,211,211)" stroke-linecap="butt" stroke-miterlimit="10.0"><path d="M 181.0056,236.5757 l -0.0000,-0.2629 l 0.5000,-0.0000 l -0.5000,0.2629 l -0.0000,-0.2629 l -0.5000,0.0000 Z"/></g><g stroke-linejoin="miter" stroke-opacity="1.0" fill-opacity="0.0" stroke="rgb(211,211,211)" stroke-width="1.0" fill="rgb(0,0,0)" stroke-linecap="butt" stroke-miterlimit="10.0"><path d="M 181.0056,77.0950 l 0.0000,70.3911 "/></g><g stroke-linejoin="miter" stroke-opacity="1.0" fill-opacity="1.0" stroke="rgb(0,0,0)" stroke-width="0.0" fill="rgb(0,0,0)" stroke-linecap="butt" stroke-miterlimit="10.0"></g><g stroke-linejoin="miter" stroke-opacity="1.0" fill-opacity="1.0" stroke="rgb(0,0,0)" stroke-width="0.0" fill="rgb(211,211,211)" stroke-linecap="butt" stroke-miterlimit="10.0"></g><g stroke-linejoin="miter" stroke-opacity="1.0" fill-opacity="1.0" stroke="rgb(0,0,0)" stroke-width="0.0" fill="rgb(211,211,211)" stroke-linecap="butt" stroke-miterlimit="10.0"><path d="M 181.0056,155.8659 l 3.1807,-9.7892 l -3.1807,1.6722 l -3.1807,-1.6722 Z"/></g><g stroke-linejoin="miter" stroke-opacity="1.0" fill-opacity="1.0" stroke="rgb(0,0,0)" stroke-width="0.0" fill="rgb(211,211,211)" stroke-linecap="butt" stroke-miterlimit="10.0"><path d="M 181.0056,147.7489 l -0.0000,-0.2629 l 0.5000,-0.0000 l -0.5000,0.2629 l -0.0000,-0.2629 l -0.5000,0.0000 Z"/></g><g stroke-linejoin="miter" stroke-opacity="1.0" fill-opacity="0.0" stroke="rgb(255,0,0)" stroke-width="1.0" fill="rgb(0,0,0)" stroke-linecap="butt" stroke-miterlimit="10.0"><path d="M 96.0697,165.4089 l 35.4549,72.2734 "/></g><g stroke-linejoin="miter" stroke-opacity="1.0" fill-opacity="1.0" stroke="rgb(0,0,0)" stroke-width="0.0" fill="rgb(0,0,0)" stroke-linecap="butt" stroke-miterlimit="10.0"></g><g stroke-linejoin="miter" stroke-opacity="1.0" fill-opacity="1.0" stroke="rgb(0,0,0)" stroke-width="0.0" fill="rgb(255,0,0)" stroke-linecap="butt" stroke-miterlimit="10.0"></g><g stroke-linejoin="miter" stroke-opacity="1.0" fill-opacity="1.0" stroke="rgb(0,0,0)" stroke-width="0.0" fill="rgb(255,0,0)" stroke-linecap="butt" stroke-miterlimit="10.0"><path d="M 135.2152,245.2056 l -1.4558,-10.1895 l -2.1191,2.9021 l -3.5921,-0.1004 Z"/></g><g stroke-linejoin="miter" stroke-opacity="1.0" fill-opacity="1.0" stroke="rgb(0,0,0)" stroke-width="0.0" fill="rgb(255,0,0)" stroke-linecap="butt" stroke-miterlimit="10.0"><path d="M 131.6403,237.9183 l -0.1158,-0.2360 l 0.4489,-0.2202 l -0.3331,0.4562 l -0.1158,-0.2360 l -0.4489,0.2202 Z"/></g><g stroke-linejoin="miter" stroke-opacity="1.0" fill-opacity="0.0" stroke="rgb(255,0,0)" stroke-width="1.0" fill="rgb(0,0,0)" stroke-linecap="butt" stroke-miterlimit="10.0"><path d="M 52.4943,76.5821 l 35.4549,72.2734 "/></g><g stroke-linejoin="miter" stroke-opacity="1.0" fill-opacity="1.0" stroke="rgb(0,0,0)" stroke-width="0.0" fill="rgb(0,0,0)" stroke-linecap="butt" stroke-miterlimit="10.0"></g><g stroke-linejoin="miter" stroke-opacity="1.0" fill-opacity="1.0" stroke="rgb(0,0,0)" stroke-width="0.0" fill="rgb(255,0,0)" stroke-linecap="butt" stroke-miterlimit="10.0"></g><g stroke-linejoin="miter" stroke-opacity="1.0" fill-opacity="1.0" stroke="rgb(0,0,0)" stroke-width="0.0" fill="rgb(255,0,0)" stroke-linecap="butt" stroke-miterlimit="10.0"><path d="M 91.6398,156.3788 l -1.4558,-10.1895 l -2.1191,2.9021 l -3.5921,-0.1004 Z"/></g><g stroke-linejoin="miter" stroke-opacity="1.0" fill-opacity="1.0" stroke="rgb(0,0,0)" stroke-width="0.0" fill="rgb(255,0,0)" stroke-linecap="butt" stroke-miterlimit="10.0"><path d="M 88.0649,149.0914 l -0.1158,-0.2360 l 0.4489,-0.2202 l -0.3331,0.4562 l -0.1158,-0.2360 l -0.4489,0.2202 Z"/></g></svg>